<?xml version="1.0" encoding="UTF-8"?>
<svg width="70px" height="95px" viewBox="0 0 70 95" version="1.1" xmlns="http://www.w3.org/2000/svg" xmlns:xlink="http://www.w3.org/1999/xlink">
    <!-- Generator: Sketch 45.2 (43514) - http://www.bohemiancoding.com/sketch -->
    <title>Spark Logo 2</title>
    <desc>Created with Sketch.</desc>
    <defs>
        <path d="M46.2633299,71.3038926 L29.7643772,71.3038926 L26.4746441,77.6295577 L20.286086,53.2543507 L15.3218468,71.3038926 L10.3576075,71.3038926 L1.96079533,71.3038926 C0.685428854,67.5233443 7.10542736e-15,63.4693855 7.10542736e-15,59.2814117 C7.31359417e-15,53.5734371 1.3152947,39.2791388 14.5005275,25.4205215 C10.0825595,35.1815266 16.1262873,43.9604509 24.8790195,45.3470005 C40.7053985,47.8541102 52.3213334,22.1868564 31.2074124,0 C55.3102511,10.121154 60,31.1755498 60,36.4268856 C60,50.1656393 52.4380033,61.4142759 46.2633299,71.3038926 Z M43.810051,75.3230888 C39.718632,82.2637179 37.0162713,88.567109 39.1534014,94.6693594 C23.0556815,96.8282277 9.70037962,88.1903697 3.58634649,75.3230888 L10.3576075,75.3230888 L18.3003903,75.3230888 L20.286086,66.165009 L25.4078537,87.3090048 L31.7604114,75.3230888 L43.810051,75.3230888 Z" id="path-1"></path>
    </defs>
    <g id="Page-3" stroke="none" stroke-width="1" fill="none" fill-rule="evenodd">
        <g id="Spark-Logo-2">
            <path d="M61.5514006,37.480962 C63.6043518,39.0400579 70.0491634,48.2608142 69.4275961,61.5325116 C68.8060288,74.8042089 59.429947,90.0407069 42.1858711,93.625404 C39.0831746,76.6540585 65.0561024,65.9026677 61.5514006,37.480962 Z" id="Path-4" fill-opacity="0.75" fill="#FFFFFF"></path>
            <mask id="mask-2" fill="white">
                <use xlink:href="#path-1"></use>
            </mask>
            <use id="Path-2" fill="#FFFFFF" xlink:href="#path-1"></use>
        </g>
    </g>
</svg>